<?xml version="1.0" encoding="utf-8"?>
<!-- Generator: Adobe Illustrator 20.0.0, SVG Export Plug-In . SVG Version: 6.00 Build 0)  -->
<svg version="1.1"
	 id="Layer_1" inkscape:version="0.91 r" sodipodi:docname="topl-darkGrey-green.svg" xmlns:cc="http://creativecommons.org/ns#" xmlns:dc="http://purl.org/dc/elements/1.1/" xmlns:inkscape="http://www.inkscape.org/namespaces/inkscape" xmlns:osb="http://www.openswatchbook.org/uri/2009/osb" xmlns:rdf="http://www.w3.org/1999/02/22-rdf-syntax-ns#" xmlns:sodipodi="http://sodipodi.sourceforge.net/DTD/sodipodi-0.dtd" xmlns:svg="http://www.w3.org/2000/svg"
	 xmlns="http://www.w3.org/2000/svg" xmlns:xlink="http://www.w3.org/1999/xlink" x="0px" y="0px" viewBox="0 0 1024 768"
	 style="enable-background:new 0 0 1024 768;" xml:space="preserve">
<style type="text/css">
	.st0{fill:#444444;}
	.st1{fill:none;stroke:#00A18E;stroke-width:0.9433;stroke-opacity:0.8039;}
	.st2{fill:#00A18E;stroke:#00A18E;stroke-width:0.9433;stroke-opacity:0.8039;}
</style>
<sodipodi:namedview  bordercolor="#666666" borderopacity="1" gridtolerance="10" guidetolerance="10" id="namedview103" inkscape:current-layer="Layer_1" inkscape:cx="291.1385" inkscape:cy="323.79254" inkscape:pageopacity="0" inkscape:pageshadow="2" inkscape:window-height="1051" inkscape:window-maximized="0" inkscape:window-width="1920" inkscape:window-x="0" inkscape:window-y="0" inkscape:zoom="0.79549513" objecttolerance="10" pagecolor="#ffffff" showgrid="false">
	</sodipodi:namedview>
<g id="g4371">
	<g id="g39" transform="matrix(4.8280699,0,0,4.7137561,-338.44349,-235.93864)">
		<path id="path41" inkscape:connector-curvature="0" class="st0" d="M125.4,166.4c0.8,0.2,1.3,0.5,1.6,1c0.3,0.5,0.4,0.9,0.4,1.3
			c0,1.1-0.4,1.9-1.2,2.5c-4.5,2.6-9.3,3.9-14.5,3.9s-8.9-1.1-11.1-3.2s-3.4-5.7-3.4-10.6v-24H91c-0.7,0-1.4-0.2-1.9-0.7
			c-0.5-0.5-0.7-1.1-0.7-1.9c0-0.7,0.2-1.4,0.7-1.9c0.5-0.5,1.1-0.8,1.9-0.8h6.3v-16.1c0-0.7,0.3-1.4,0.9-1.9
			c0.6-0.5,1.3-0.7,2.1-0.7c0.8,0,1.5,0.2,2.1,0.7c0.6,0.5,0.9,1.1,0.9,1.9v16.1h18.9c0.7,0,1.4,0.3,1.9,0.8
			c0.5,0.5,0.7,1.2,0.7,1.9c0,0.7-0.2,1.4-0.7,1.9c-0.5,0.5-1.1,0.7-1.9,0.7h-18.9v24c0,3.1,0.7,5.4,2,6.7c1.3,1.3,3.7,2,7.3,2
			c3.6,0,7.1-1,10.7-3.1C123.9,166.3,124.6,166.2,125.4,166.4L125.4,166.4z"/>
		<path id="path43" inkscape:connector-curvature="0" class="st0" d="M139.3,168.8c-4-4.2-6-9.5-6-15.9c0-6.4,2-11.7,6.1-15.9
			c4-4.2,9.2-6.2,15.5-6.2s11.4,2.1,15.4,6.2c4,4.2,6,9.5,6,15.9c0,6.5-2,11.8-6,15.9c-4,4.1-9.2,6.2-15.5,6.2
			C148.5,175,143.3,172.9,139.3,168.8z M154.9,169.8c4.6,0,8.3-1.6,11.2-4.7c2.9-3.1,4.3-7.2,4.3-12.2c0-5-1.4-9.1-4.3-12.2
			c-2.9-3.2-6.6-4.8-11.2-4.8c-4.6,0-8.3,1.6-11.2,4.8c-2.9,3.2-4.3,7.3-4.3,12.2c0,5,1.4,9,4.3,12.2
			C146.6,168.3,150.3,169.8,154.9,169.8z"/>
		<path id="path45" inkscape:connector-curvature="0" class="st0" d="M197.3,139.9c3.9-6.1,9.1-9.1,15.6-9.1
			c6.5,0,11.4,2.1,14.8,6.2c3.4,4.2,5.1,9.4,5.1,15.8c0,6.4-1.7,11.7-5.2,15.9c-3.5,4.2-8.3,6.3-14.5,6.3c-6.2,0-11.3-2.1-15.3-6.4
			V197c0,0.7-0.3,1.4-0.9,1.9c-0.6,0.5-1.3,0.7-2.1,0.7c-0.8,0-1.5-0.2-2.1-0.7c-0.6-0.5-0.9-1.1-0.9-1.9v-57.7
			c0-1.4-0.7-2.1-2.1-2.1h-5.3c-0.8,0-1.4-0.2-1.9-0.7c-0.5-0.5-0.7-1.1-0.7-1.9c0-0.7,0.2-1.4,0.7-1.9c0.5-0.5,1.1-0.8,1.9-0.8h6.1
			C195.2,131.9,197.5,134.5,197.3,139.9L197.3,139.9z M197.8,163.1c4.8,4.5,9.6,6.7,14.4,6.7c4.8,0,8.4-1.6,10.9-4.7
			c2.5-3.1,3.8-7.3,3.8-12.5s-1.2-9.2-3.7-12.2c-2.5-3-5.9-4.5-10.2-4.5c-6.4,0-11.4,3.6-15.2,10.7V163.1z"/>
		<path id="path47" inkscape:connector-curvature="0" class="st0" d="M254.8,168.6h4.4c0.7,0,1.4,0.3,1.9,0.8
			c0.5,0.5,0.7,1.2,0.7,1.9c0,0.8-0.2,1.4-0.7,1.9c-0.5,0.5-1.1,0.7-1.9,0.7h-4.4c-6.1,0-9.1-2.4-9.1-7.3V94.9h-7.4
			c-0.7,0-1.4-0.2-1.9-0.7c-0.5-0.5-0.7-1.1-0.7-1.9c0-0.7,0.2-1.4,0.7-1.9c0.5-0.5,1.1-0.8,1.9-0.8h10.4c0.8,0,1.5,0.3,2.1,0.8
			c0.6,0.5,0.9,1.2,0.9,1.9v74.1C251.8,167.9,252.8,168.6,254.8,168.6L254.8,168.6z"/>
	</g>
	<g id="g49" transform="matrix(4.8280699,0,0,4.7137561,-338.44349,-235.93864)">
		<g id="g51">
			<line id="line53" class="st1" x1="123.1" y1="111.5" x2="146.2" y2="119.9"/>
			<line id="line55" class="st1" x1="144.8" y1="120.2" x2="162.3" y2="108.1"/>
			<line id="line57" class="st1" x1="162.3" y1="108.1" x2="194.9" y2="108.8"/>
			<line id="line59" class="st1" x1="184.5" y1="89.7" x2="162.3" y2="108.1"/>
			<path id="path61" inkscape:connector-curvature="0" class="st2" d="M174.6,98.9c0,0,21.8-5.5,26.1-19.2
				c4.3-13.7,1.2-16.2,1.2-16.2s-4.9,4.2-8.7,5.5C189.4,70.4,173.9,77.5,174.6,98.9L174.6,98.9z"/>
			<path id="path63" inkscape:connector-curvature="0" class="st2" d="M181.1,107.6c0,0,22.9-11.3,36.7-2.7
				c13.8,8.7,12.9,13.1,12.9,13.1s-7.3,0-11.6,1.6C214.8,121.4,196.2,126.7,181.1,107.6L181.1,107.6z"/>
		</g>
		<path id="path65" inkscape:connector-curvature="0" class="st2" d="M149.1,119.4c0,2.1-1.7,3.7-3.7,3.7c-2.1,0-3.7-1.7-3.7-3.7
			c0-2.1,1.7-3.7,3.7-3.7C147.4,115.6,149.1,117.3,149.1,119.4z"/>
		<path id="path67" inkscape:connector-curvature="0" class="st2" d="M167,107.9c0,2.1-1.7,3.7-3.7,3.7c-2.1,0-3.7-1.7-3.7-3.7
			c0-2.1,1.7-3.7,3.7-3.7C165.3,104.2,167,105.9,167,107.9z"/>
		<path id="path69" inkscape:connector-curvature="0" class="st2" d="M126.8,111.5c0,2.1-1.7,3.7-3.7,3.7c-2.1,0-3.7-1.7-3.7-3.7
			c0-2.1,1.7-3.7,3.7-3.7C125.2,107.7,126.8,109.4,126.8,111.5z"/>
	</g>
</g>
</svg>
