<svg xmlns="http://www.w3.org/2000/svg" xmlns:xlink="http://www.w3.org/1999/xlink" viewBox="0 0 837.12 641.96"><defs><style>.cls-1,.cls-12,.cls-7{fill:none;}.cls-2{clip-path:url(#clip-path);}.cls-3{fill:#fff;}.cls-4{opacity:0.8;}.cls-5{clip-path:url(#clip-path-3);}.cls-6{fill:#00a18e;}.cls-12,.cls-7{stroke:#00a18e;}.cls-7{stroke-width:2px;}.cls-8{clip-path:url(#clip-path-4);}.cls-9{clip-path:url(#clip-path-5);}.cls-10{clip-path:url(#clip-path-6);}.cls-11{clip-path:url(#clip-path-7);}.cls-12{stroke-width:0.84px;}.cls-13{clip-path:url(#clip-path-8);}.cls-14{clip-path:url(#clip-path-9);}.cls-15{clip-path:url(#clip-path-10);}.cls-16{clip-path:url(#clip-path-11);}</style><clipPath id="clip-path"><rect class="cls-1" width="837.13" height="641.96"/></clipPath><clipPath id="clip-path-3"><rect class="cls-1" x="166.05" y="224.81" width="114.57" height="43.31"/></clipPath><clipPath id="clip-path-4"><rect class="cls-1" x="270.76" y="209.03" width="87.84" height="60.14"/></clipPath><clipPath id="clip-path-5"><rect class="cls-1" x="355.95" y="205.32" width="159.15" height="5.81"/></clipPath><clipPath id="clip-path-6"><rect class="cls-1" x="354.94" y="125.62" width="110.98" height="91.32"/></clipPath><clipPath id="clip-path-7"><rect class="cls-1" x="415.66" width="138.05" height="167.81"/></clipPath><clipPath id="clip-path-8"><rect class="cls-1" x="446.83" y="179.92" width="240.67" height="95.09"/></clipPath><clipPath id="clip-path-9"><rect class="cls-1" x="256.41" y="245.65" width="36.95" height="36.09"/></clipPath><clipPath id="clip-path-10"><rect class="cls-1" x="343.01" y="191.79" width="36.95" height="36.09"/></clipPath><clipPath id="clip-path-11"><rect class="cls-1" x="149" y="208.45" width="36.95" height="36.09"/></clipPath></defs><title>Asset 1</title><g id="Layer_2" data-name="Layer 2"><g id="Layer_1-2" data-name="Layer 1"><g class="cls-2"><g class="cls-2"><path class="cls-3" d="M178.65,485.27q5.69,1.07,7.86,4.5a11.9,11.9,0,0,1,2.17,6.09q0,7.94-6,11.64A138.94,138.94,0,0,1,112.78,526q-37.41,0-53.68-15.09t-16.26-50V347.64H12.47a12.25,12.25,0,0,1-8.95-3.44A11.65,11.65,0,0,1,0,335.47a12.56,12.56,0,0,1,3.52-9,11.83,11.83,0,0,1,8.95-3.71H42.84v-75.7a10.68,10.68,0,0,1,4.33-8.73,16.07,16.07,0,0,1,10.3-3.44,16.11,16.11,0,0,1,10.3,3.44,10.69,10.69,0,0,1,4.33,8.73v75.7h91.09a11.85,11.85,0,0,1,8.95,3.71,12.61,12.61,0,0,1,3.52,9,11.69,11.69,0,0,1-3.52,8.73,12.27,12.27,0,0,1-8.95,3.44H72.11V460.92q0,22.24,9.49,31.5t35.24,9.26q25.75,0,51.78-14.82A13.79,13.79,0,0,1,178.65,485.27Z"/><path class="cls-3" d="M245.88,496.65q-29-29.38-29-74.91t29.28-74.9q29.27-29.38,74.82-29.38t74.55,29.38q29,29.38,29,75.16t-29,74.91Q366.51,526,320.7,526t-74.82-29.38m75.1,5q33.06,0,53.95-22.23T395.8,422q0-35.2-20.87-57.7T321,341.82q-33.08,0-53.95,22.5T246.16,422q0,35.21,20.87,57.44T321,501.68"/><path class="cls-3" d="M525.92,360.34q28.19-42.88,75.09-42.88t71.57,29.38q24.67,29.38,24.67,74.37T672,496.12Q646.83,526,602.09,526t-74-30.17V629.78a10.71,10.71,0,0,1-4.34,8.74,17.14,17.14,0,0,1-20.6,0,10.68,10.68,0,0,1-4.33-8.74V357.7q0-10-10.3-10.06H463a12.23,12.23,0,0,1-8.95-3.44,11.65,11.65,0,0,1-3.52-8.73,12.55,12.55,0,0,1,3.52-9,11.82,11.82,0,0,1,8.95-3.71H492.3Q527,322.76,525.92,360.34Zm2.17,109.58q34.69,31.76,69.4,31.76t52.86-22.23q18.16-22.24,18.16-58.76T650.62,363q-17.9-21.17-49.34-21.17-46.09,0-73.19,50.29Z"/><path class="cls-3" d="M803.51,495.86h21.14a11.85,11.85,0,0,1,8.95,3.71,12.6,12.6,0,0,1,3.52,9,11.69,11.69,0,0,1-3.52,8.73,12.27,12.27,0,0,1-8.95,3.44H803.51q-43.92,0-43.92-34.41V148.61H723.81a12.27,12.27,0,0,1-8.95-3.44,11.69,11.69,0,0,1-3.53-8.73,12.61,12.61,0,0,1,3.53-9,11.84,11.84,0,0,1,8.95-3.7h50.42a15.37,15.37,0,0,1,10.3,3.7,11.43,11.43,0,0,1,4.33,9V485.8Q788.87,495.86,803.51,495.86Z"/><g class="cls-4"><g class="cls-5"><rect class="cls-6" x="222.92" y="187.14" width="0.84" height="118.66" transform="translate(-83.95 373.75) rotate(-70.32)"/><rect class="cls-7" x="222.92" y="187.14" width="0.84" height="118.66" transform="translate(-83.95 373.75) rotate(-70.32)"/></g></g><g class="cls-4"><g class="cls-8"><rect class="cls-6" x="263.77" y="238.67" width="101.82" height="0.84" transform="translate(-79.85 215.89) rotate(-33.86)"/><rect class="cls-7" x="263.77" y="238.67" width="101.82" height="0.84" transform="translate(-79.85 215.89) rotate(-33.86)"/></g></g><g class="cls-4"><g class="cls-9"><rect class="cls-6" x="435.11" y="129.66" width="0.84" height="157.13" transform="translate(219.21 639.79) rotate(-88.93)"/><rect class="cls-7" x="435.11" y="129.66" width="0.84" height="157.13" transform="translate(219.21 639.79) rotate(-88.93)"/></g></g><g class="cls-4"><g class="cls-10"><rect class="cls-6" x="341.53" y="170.28" width="137.81" height="2" transform="translate(-16.07 297.34) rotate(-39.12)"/><rect class="cls-7" x="341.53" y="170.28" width="137.81" height="2" transform="translate(-16.07 297.34) rotate(-39.12)"/></g></g><path class="cls-6" d="M416.21,167.28S521.4,141.55,542.3,76.95,547.88.54,547.88.54s-23.67,19.8-42.07,26.08S412.54,66.25,416.21,167.28Z"/><g class="cls-4"><g class="cls-11"><path class="cls-12" d="M416.21,167.28S521.4,141.55,542.3,76.95,547.88.54,547.88.54s-23.67,19.8-42.07,26.08S412.54,66.25,416.21,167.28Z"/></g></g><path class="cls-6" d="M447.48,208.28s110.32-53.4,177.12-12.55,62.42,62,62.42,62-35.35,0-56.06,7.72S520.46,298.27,447.48,208.28Z"/><g class="cls-4"><g class="cls-13"><path class="cls-12" d="M447.48,208.28s110.32-53.4,177.12-12.55,62.42,62,62.42,62-35.35,0-56.06,7.72S520.46,298.27,447.48,208.28Z"/></g></g><path class="cls-6" d="M292.94,263.71a18.06,18.06,0,1,1-18-17.63,17.85,17.85,0,0,1,18,17.63"/><g class="cls-4"><g class="cls-14"><path class="cls-12" d="M292.94,263.71a18.06,18.06,0,1,1-18-17.63A17.85,17.85,0,0,1,292.94,263.71Z"/></g></g><path class="cls-6" d="M379.54,209.85a18.06,18.06,0,1,1-18-17.63,17.85,17.85,0,0,1,18,17.63"/><g class="cls-4"><g class="cls-15"><path class="cls-12" d="M379.54,209.85a18.06,18.06,0,1,1-18-17.63A17.85,17.85,0,0,1,379.54,209.85Z"/></g></g><path class="cls-6" d="M185.53,226.51a18.06,18.06,0,1,1-18-17.63,17.85,17.85,0,0,1,18,17.63"/><g class="cls-4"><g class="cls-16"><path class="cls-12" d="M185.53,226.51a18.06,18.06,0,1,1-18-17.63A17.85,17.85,0,0,1,185.53,226.51Z"/></g></g></g></g></g></g></svg>